<?xml version="1.0" encoding="UTF-8" standalone="no"?>
<!-- Generated by graphviz version 2.38.0 (20140413.2041)
 -->

<!-- Title: %3 Pages: 1 -->

<svg
   xmlns:dc="http://purl.org/dc/elements/1.1/"
   xmlns:cc="http://creativecommons.org/ns#"
   xmlns:rdf="http://www.w3.org/1999/02/22-rdf-syntax-ns#"
   xmlns:svg="http://www.w3.org/2000/svg"
   xmlns="http://www.w3.org/2000/svg"
   xmlns:sodipodi="http://sodipodi.sourceforge.net/DTD/sodipodi-0.dtd"
   xmlns:inkscape="http://www.inkscape.org/namespaces/inkscape"
   width="417pt"
   height="264pt"
   viewBox="0.00 0.00 416.57 263.78"
   id="svg2"
   version="1.1"
   inkscape:version="0.91 r13725"
   sodipodi:docname="switch.svg">
  <metadata
     id="metadata160">
    <rdf:RDF>
      <cc:Work
         rdf:about="">
        <dc:format>image/svg+xml</dc:format>
        <dc:type
           rdf:resource="http://purl.org/dc/dcmitype/StillImage" />
      </cc:Work>
    </rdf:RDF>
  </metadata>
  <defs
     id="defs158" />
  <sodipodi:namedview
     pagecolor="#ffffff"
     bordercolor="#666666"
     borderopacity="1"
     objecttolerance="10"
     gridtolerance="10"
     guidetolerance="10"
     inkscape:pageopacity="0"
     inkscape:pageshadow="2"
     inkscape:window-width="1301"
     inkscape:window-height="744"
     id="namedview156"
     showgrid="false"
     inkscape:zoom="0.60239808"
     inkscape:cx="260.625"
     inkscape:cy="165"
     inkscape:window-x="65"
     inkscape:window-y="24"
     inkscape:window-maximized="1"
     inkscape:current-layer="graph0" />
  <g
     id="graph0"
     class="graph"
     transform="scale(1 1) rotate(0) translate(4 259.78)">
    <title
       id="title5">%3</title>
    <!-- inputs -->
    <g
       id="node1"
       class="node">
      <title
         id="title10">inputs</title>
      <polygon
         points="54,-132.78 0,-132.78 0,-96.7801 54,-96.7801 54,-132.78"
         id="polygon12"
         stroke="#333366"
         fill="#7f7fb3" />
      <text
         x="27"
         y="-111.08"
         font-size="14.00"
         id="text14"
         text-anchor="middle"
         font-family="Times,serif">inputs</text>
    </g>
    <!-- proc1 -->
    <g
       id="node2"
       class="node">
      <title
         id="title17">proc1</title>
      <polygon
         points="144,-255.78 90,-255.78 90,-219.78 144,-219.78 144,-255.78"
         id="polygon19"
         stroke="#333366"
         fill="#7f7fb3" />
      <text
         x="117"
         y="-234.08"
         font-size="14.00"
         id="text21"
         text-anchor="middle"
         font-family="Times,serif">proc1</text>
    </g>
    <!-- inputs&#45;&gt;proc1 -->
    <g
       id="edge9"
       class="edge">
      <title
         id="title24">inputs-&gt;proc1</title>
      <path
         d="M38.2269,-132.82C49.7916,-152.657 69.6714,-185.12 90,-210.78 90.293,-211.15 90.5902,-211.52 90.8912,-211.891"
         id="path26"
         stroke="#eb821e"
         fill="none" />
      <polygon
         points="88.4046,-214.366 97.6052,-219.619 93.6888,-209.775 88.4046,-214.366"
         id="polygon28"
         stroke="#eb821e"
         fill="#eb821e" />
    </g>
    <!-- proc2 -->
    <g
       id="node3"
       class="node">
      <title
         id="title31">proc2</title>
      <polygon
         points="144,-201.78 90,-201.78 90,-165.78 144,-165.78 144,-201.78"
         id="polygon33"
         stroke="#4c4c7f"
         fill="#d9d9e6" />
      <text
         x="117"
         y="-180.08"
         font-size="14.00"
         id="text35"
         text-anchor="middle"
         font-family="Times,serif">proc2</text>
    </g>
    <!-- inputs&#45;&gt;proc2 -->
    <g
       id="edge13"
       class="edge">
      <title
         id="title38">inputs-&gt;proc2</title>
      <path
         d="M51.121,-132.909C61.5293,-141.07 73.9668,-150.822 85.1547,-159.595"
         id="path40"
         stroke="#b3b3cc"
         fill="none" />
      <polygon
         points="83.0044,-162.356 93.0335,-165.772 87.3237,-156.848 83.0044,-162.356"
         id="polygon42"
         stroke="#b3b3cc"
         fill="#b3b3cc" />
    </g>
    <!-- proc3 -->
    <g
       id="node4"
       class="node">
      <title
         id="title45">proc3</title>
      <polygon
         points="144,-109.78 90,-109.78 90,-73.7801 144,-73.7801 144,-109.78"
         id="polygon47"
         stroke="#333366"
         fill="#7f7fb3" />
      <text
         x="117"
         y="-88.0801"
         font-size="14.00"
         id="text49"
         text-anchor="middle"
         font-family="Times,serif">proc3</text>
    </g>
    <!-- inputs&#45;&gt;proc3 -->
    <g
       id="edge12"
       class="edge">
      <title
         id="title52">inputs-&gt;proc3</title>
      <path
         d="M54.4029,-107.879C62.481,-105.768 71.5067,-103.409 80.1046,-101.162"
         id="path54"
         stroke="#eb821e"
         fill="none" />
      <polygon
         points="81.1291,-104.512 89.919,-98.5967 79.3589,-97.7393 81.1291,-104.512"
         id="polygon56"
         stroke="#eb821e"
         fill="#eb821e" />
    </g>
    <!-- proc4 -->
    <g
       id="node5"
       class="node">
      <title
         id="title59">proc4</title>
      <polygon
         points="144,-55.7801 90,-55.7801 90,-19.7801 144,-19.7801 144,-55.7801"
         id="polygon61"
         stroke="#4c4c7f"
         fill="#d9d9e6" />
      <text
         x="117"
         y="-34.0801"
         font-size="14.00"
         id="text63"
         text-anchor="middle"
         font-family="Times,serif">proc4</text>
    </g>
    <!-- inputs&#45;&gt;proc4 -->
    <g
       id="edge3"
       class="edge">
      <title
         id="title66">inputs-&gt;proc4</title>
      <path
         d="M48.8548,-96.5322C60.4716,-86.3674 75.0976,-73.5697 87.731,-62.5155"
         id="path68"
         stroke="#b3b3cc"
         fill="none" />
      <polygon
         points="90.0739,-65.1162 95.2949,-55.8971 85.4644,-59.8481 90.0739,-65.1162"
         id="polygon70"
         stroke="#b3b3cc"
         fill="#b3b3cc" />
    </g>
    <!-- proc_select -->
    <g
       id="node6"
       class="node">
      <title
         id="title73">proc_select</title>
      <polygon
         points="267.701,-142.78 311.113,-160.78 267.701,-178.78 197.459,-178.763 197.459,-142.797 267.701,-142.78"
         id="polygon75"
         stroke="#7f7333"
         fill="#ffe67f" />
      <text
         x="248.287"
         y="-157.08"
         font-size="14.00"
         id="text77"
         text-anchor="middle"
         font-family="Times,serif">proc_select</text>
    </g>
    <!-- inputs&#45;&gt;proc_select -->
    <g
       id="edge7"
       class="edge">
      <title
         id="title80">inputs-&gt;proc_select</title>
      <path
         d="M54.0162,-120.238C86.6443,-127.082 143.598,-139.029 187.255,-148.187"
         id="path82"
         stroke="#eb821e"
         fill="none" />
      <polygon
         points="186.691,-151.645 197.197,-150.273 188.129,-144.794 186.691,-151.645"
         id="polygon84"
         stroke="#eb821e"
         fill="#eb821e" />
    </g>
    <!-- proc_select2 -->
    <g
       id="node7"
       class="node">
      <title
         id="title87">proc_select2</title>
      <polygon
         points="269.323,-23.7801 316.361,-41.7801 269.323,-59.7801 193.214,-59.7633 193.214,-23.7969 269.323,-23.7801"
         id="polygon89"
         stroke="#7f7333"
         fill="#ffe67f" />
      <text
         x="248.287"
         y="-38.0801"
         font-size="14.00"
         id="text91"
         text-anchor="middle"
         font-family="Times,serif">proc_select2</text>
    </g>
    <!-- inputs&#45;&gt;proc_select2 -->
    <g
       id="edge8"
       class="edge">
      <title
         id="title94">inputs-&gt;proc_select2</title>
      <path
         d="M32.8264,-96.4312C40.3947,-71.8388 57.649,-29.1575 90,-10.7801 126.012,9.67702 173.304,-4.12383 206.594,-19.2674"
         id="path96"
         stroke="#eb821e"
         fill="none" />
      <polygon
         points="205.486,-22.6163 216.019,-23.7596 208.498,-16.2974 205.486,-22.6163"
         id="polygon98"
         stroke="#eb821e"
         fill="#eb821e" />
    </g>
    <!-- proc1&#45;&gt;proc_select -->
    <g
       id="edge1"
       class="edge">
      <title
         id="title101">proc1-&gt;proc_select</title>
      <path
         d="M144.163,-222.198C162.628,-211.201 187.678,-196.281 208.466,-183.901"
         id="path103"
         stroke="#eb821e"
         fill="none" />
      <polygon
         points="210.281,-186.894 217.082,-178.769 206.699,-180.879 210.281,-186.894"
         id="polygon105"
         stroke="#eb821e"
         fill="#eb821e" />
    </g>
    <!-- proc2&#45;&gt;proc_select -->
    <g
       id="edge4"
       class="edge">
      <title
         id="title108">proc2-&gt;proc_select</title>
      <path
         d="M144.163,-179.126C156.692,-176.897 172.253,-174.128 187.458,-171.424"
         id="path110"
         stroke="#b3b3cc"
         fill="none" />
      <polygon
         points="188.129,-174.859 197.362,-169.662 186.903,-167.967 188.129,-174.859"
         id="polygon112"
         stroke="#b3b3cc"
         fill="#b3b3cc" />
    </g>
    <!-- proc3&#45;&gt;proc_select2 -->
    <g
       id="edge10"
       class="edge">
      <title
         id="title115">proc3-&gt;proc_select2</title>
      <path
         d="M144.163,-81.6619C157.733,-76.414 174.859,-69.7906 191.236,-63.457"
         id="path117"
         stroke="#eb821e"
         fill="none" />
      <polygon
         points="192.695,-66.6453 200.76,-59.7739 190.17,-60.1166 192.695,-66.6453"
         id="polygon119"
         stroke="#eb821e"
         fill="#eb821e" />
    </g>
    <!-- outputs -->
    <g
       id="node8"
       class="node">
      <title
         id="title122">outputs</title>
      <polygon
         points="408.573,-109.78 352.573,-109.78 352.573,-73.7801 408.573,-73.7801 408.573,-109.78"
         id="polygon124"
         stroke="#333366"
         fill="#7f7fb3" />
      <text
         x="380.573"
         y="-88.0801"
         font-size="14.00"
         id="text126"
         text-anchor="middle"
         font-family="Times,serif">outputs</text>
    </g>
    <!-- proc3&#45;&gt;outputs -->
    <g
       id="edge5"
       class="edge">
      <title
         id="title129">proc3-&gt;outputs</title>
      <path
         d="M144.037,-91.7801C190.678,-91.7801 288.612,-91.7801 342.342,-91.7801"
         id="path131"
         stroke-dasharray="1,5"
         stroke="#eb821e"
         fill="none" />
      <polygon
         points="342.47,-95.2802 352.47,-91.7801 342.47,-88.2802 342.47,-95.2802"
         id="polygon133"
         stroke="#eb821e"
         fill="#eb821e" />
    </g>
    <!-- proc4&#45;&gt;proc_select2 -->
    <g
       id="edge6"
       class="edge">
      <title
         id="title136">proc4-&gt;proc_select2</title>
      <path
         d="M144.163,-38.5896C155.504,-38.9404 169.328,-39.3682 183.124,-39.795"
         id="path138"
         stroke="#b3b3cc"
         fill="none" />
      <polygon
         points="183.024,-43.2935 193.128,-40.1045 183.241,-36.2968 183.024,-43.2935"
         id="polygon140"
         stroke="#b3b3cc"
         fill="#b3b3cc" />
    </g>
    <!-- proc_select&#45;&gt;outputs -->
    <g
       id="edge2"
       class="edge">
      <title
         id="title143">proc_select-&gt;outputs</title>
      <path
         d="M276.599,-146.315C295.969,-136.057 322.167,-122.182 343.291,-110.995"
         id="path145"
         stroke-dasharray="1,5"
         stroke="#eb821e"
         fill="none" />
      <polygon
         points="345.098,-113.999 352.297,-106.226 341.822,-107.813 345.098,-113.999"
         id="polygon147"
         stroke="#eb821e"
         fill="#eb821e" />
    </g>
    <!-- proc_select2&#45;&gt;outputs -->
    <g
       id="edge11"
       class="edge">
      <title
         id="title150">proc_select2-&gt;outputs</title>
      <path
         d="M282.839,-54.6564C301.201,-61.7034 323.983,-70.4461 342.824,-77.6768"
         id="path152"
         stroke-dasharray="1,5"
         stroke="#eb821e"
         fill="none" />
      <polygon
         points="341.683,-80.9879 352.273,-81.3032 344.191,-74.4526 341.683,-80.9879"
         id="polygon154"
         stroke="#eb821e"
         fill="#eb821e" />
    </g>
  </g>
</svg>
